<svg xmlns="http://www.w3.org/2000/svg" width="18.932" height="18.528" viewBox="0 0 18.932 18.528">
  <g id="XMLID_639_" transform="translate(0.023 -5.379)">
    <path id="XMLID_1547_" d="M93.346,261.542a1.7,1.7,0,0,0-2.9-1.108l-1.2,1.2,1.6,1.6h0l2.4,2.4.8-.8-1.6-1.6.4-.4a.566.566,0,0,1,.8,0l1.2,1.2.8-.8-1.2-1.2A1.687,1.687,0,0,0,93.346,261.542Zm-1.7.9-.8-.8.4-.4a.567.567,0,0,1,.8.8Z" transform="translate(-85.897 -244.942)" fill="#4885ed"/>
    <path id="XMLID_1546_" d="M0,0H8.014V1.133H0Z" transform="translate(-0.023 17.037) rotate(-45)" fill="#4885ed"/>
    <path id="XMLID_1545_" d="M0,0H8.815V1.133H0Z" transform="translate(11.875 18.171) rotate(-45)" fill="#4885ed"/>
    <path id="XMLID_1538_" d="M8.494,346.4a1.7,1.7,0,0,0-2.9-1.108l-1.2,1.2L8.4,350.5l1.2-1.2a1.7,1.7,0,0,0-1.108-2.9Zm-2.1-.307a.567.567,0,0,1,.8.8l-.4.4-.8-.8Zm2.4,2.4-.4.4-.8-.8.4-.4a.567.567,0,1,1,.8.8Z" transform="translate(-4.25 -326.59)" fill="#4885ed"/>
    <path id="XMLID_1535_" d="M196.461,177.985l1.2,1.2.8-.8-2.8-2.8a1.7,1.7,0,0,0-2.4,2.4l2.8,2.8.8-.8-1.2-1.2Zm-2.4-1.6a.567.567,0,0,1,.8,0l.8.8-.8.8-.8-.8A.567.567,0,0,1,194.057,176.383Z" transform="translate(-185.499 -163.295)" fill="#4885ed"/>
    <path id="XMLID_1534_" d="M263.76,77.181l-1.938-1.938,2.754,1.123.787-.787-4.007-4.007-.8.8,1.907,1.907-2.709-1.1-.8.8,4.007,4.007Z" transform="translate(-249.192 -63.692)" fill="#4885ed"/>
    <path id="XMLID_642_" d="M349.013,9.882a1.7,1.7,0,0,0,0-2.4l-1.6-1.6a1.7,1.7,0,0,0-2.4,0l-1.2,1.2,4.007,4.007Zm-3.206-3.205a.567.567,0,0,1,.8,0l1.6,1.6a.567.567,0,0,1,0,.8l-.4.4-2.4-2.4Z" transform="translate(-330.838)" fill="#4885ed"/>
  </g>
</svg>
