<svg xmlns="http://www.w3.org/2000/svg" width="11.486" height="12.682" viewBox="0 0 11.486 12.682">
  <g id="calories" transform="translate(-50.752 -63.718)">
    <path id="Path_9407" data-name="Path 9407" d="M122.013,251.381v-1.093l.352-.443,1.077,1.618c.148.222.522-.007.4-.215l-1.177-1.78c1.088-1.36,1.045-1.285,1.045-1.357,0-.155-.268-.323-.389-.163l-1.306,1.7v-1.6c0-.212-.446-.212-.446,0v3.339c0,.112.116.163.223.163S122.013,251.493,122.013,251.381Z" transform="translate(-68.812 -178.954)" fill="#4885ed"/>
    <path id="Path_9408" data-name="Path 9408" d="M209.37,292.358a.667.667,0,0,1,.408.123.232.232,0,0,0,.118.051c.113,0,.188-.131.188-.218,0-.419-1.748-.729-1.748.621v.5c0,1.359,1.778,1.037,1.778.611a.219.219,0,0,0-.2-.213.238.238,0,0,0-.126.054.667.667,0,0,1-.416.125.525.525,0,0,1-.6-.577v-.5A.523.523,0,0,1,209.37,292.358Z" transform="translate(-153.127 -221.78)" fill="#4885ed"/>
    <path id="Path_9409" data-name="Path 9409" d="M279.123,293.766a.631.631,0,0,0,.685.675.977.977,0,0,0,.736-.364v.161c0,.223.421.212.421,0v-1.272c0-1.373-1.684-1-1.684-.676,0,.094.059.223.168.223a.262.262,0,0,0,.111-.04c.478-.245.963-.071.963.5v.09C279.97,293.061,279.123,293.025,279.123,293.766Zm1.4-.179a.629.629,0,0,1-.587.492.331.331,0,0,1-.368-.358c0-.4.548-.378.955-.378Z" transform="translate(-221.911 -221.811)" fill="#4885ed"/>
    <path id="Path_9410" data-name="Path 9410" d="M365.28,246.45v-3.483c0-.206-.441-.216-.441,0v3.483a.2.2,0,0,0,.218.163C365.174,246.613,365.28,246.535,365.28,246.45Z" transform="translate(-305.202 -174.023)" fill="#4885ed"/>
    <path id="Path_9411" data-name="Path 9411" d="M51.186,70.4a12.33,12.33,0,0,1,1.989-6.167c.3,1.644.537,2.611.581,3.384a.315.315,0,0,0,.583.147,7.356,7.356,0,0,0,.6-1.209.216.216,0,0,0-.4-.154,6.837,6.837,0,0,1-.376.817c-.089-.761-.311-1.7-.576-3.184a.386.386,0,0,0-.71-.131c-3.2,5.313-2.292,9.033-.433,10.892a.216.216,0,0,0,.306-.306A5.625,5.625,0,0,1,51.186,70.4Z" fill="#4885ed"/>
    <path id="Path_9412" data-name="Path 9412" d="M139.209,138.365a.216.216,0,1,0-.43.05,4.58,4.58,0,0,0,.568,1.734,5.46,5.46,0,0,1,.6,4.31,5.416,5.416,0,0,1-8.228,2.915.216.216,0,1,0-.25.353,5.8,5.8,0,0,0,8.9-3.154,5.888,5.888,0,0,0-.644-4.638A4.15,4.15,0,0,1,139.209,138.365Z" transform="translate(-78.349 -72.349)" fill="#4885ed"/>
  </g>
</svg>
