<svg xmlns="http://www.w3.org/2000/svg" width="12.342" height="10.834" viewBox="0 0 12.342 10.834">
  <g id="starch_1_" data-name="starch (1)" transform="translate(0 -31.291)">
    <path id="Path_9424" data-name="Path 9424" d="M8.986,42.125H3.356a.544.544,0,0,1-.47-.271L.072,36.979a.544.544,0,0,1,0-.542l2.815-4.875a.544.544,0,0,1,.47-.271H8.986a.544.544,0,0,1,.47.271l1.2,2.079a.181.181,0,1,1-.313.181l-1.2-2.079a.181.181,0,0,0-.157-.09H3.356a.181.181,0,0,0-.157.09L.385,36.618a.181.181,0,0,0,0,.181L3.2,41.674a.181.181,0,0,0,.157.09H8.985a.181.181,0,0,0,.157-.09L11.957,36.8a.181.181,0,0,0,0-.181l-1.242-2.152a.181.181,0,1,1,.313-.181l1.242,2.152a.544.544,0,0,1,0,.542L9.455,41.854A.544.544,0,0,1,8.986,42.125Zm-.667-1.5H6.728a1.164,1.164,0,0,1-1-.58l-.1-.181a.181.181,0,1,1,.313-.181l.1.181a.8.8,0,0,0,.692.4H8l-.631-1.107a.8.8,0,0,0-.691-.4H5.651a1.154,1.154,0,0,1-.271-.032l.2.343a.181.181,0,1,1-.313.181L2.772,34.931a.181.181,0,0,1,.156-.271h.9V32.974a.181.181,0,0,1,.271-.156l1.46.843.449-.777a.181.181,0,0,1,.313,0l.8,1.377a1.164,1.164,0,0,1,0,1.16l-.512.887a.8.8,0,0,0,0,.8h0l.657,1.138A1.155,1.155,0,0,1,7.367,38l.512-.887a.8.8,0,0,0,0-.8h0l-.429-.743a.181.181,0,1,1,.313-.181L9.27,38a1.164,1.164,0,0,1,0,1.16l-.8,1.377A.181.181,0,0,1,8.319,40.623Zm-.638-1.647.633,1.112.643-1.113a.8.8,0,0,0,0-.8L8.3,37.037a1.155,1.155,0,0,1-.108.251l-.512.887a.8.8,0,0,0,0,.8ZM4.3,36.857,4.958,38a.8.8,0,0,0,.692.4H6.675a1.155,1.155,0,0,1,.271.032l-.657-1.139h0a.8.8,0,0,0-.692-.4H4.572A1.152,1.152,0,0,1,4.3,36.857Zm-.42-.728a.8.8,0,0,0,.691.4H5.6a1.154,1.154,0,0,1,.271.032l-.657-1.139a.8.8,0,0,0-.692-.4H3.242l.638,1.106h0Zm1.643-.888.657,1.139a1.155,1.155,0,0,1,.108-.251l.512-.887a.8.8,0,0,0,0-.8l-.639-1.106L5.781,34h0l-.256.443A.8.8,0,0,0,5.524,35.241Zm1.434.09h0Zm-2.77-.671h.332a1.159,1.159,0,0,1,.538.133,1.159,1.159,0,0,1,.154-.532l.166-.287-1.189-.687V34.66Z" fill="#4885ed"/>
  </g>
</svg>
