<svg xmlns="http://www.w3.org/2000/svg" width="138.651" height="138.538" viewBox="0 0 138.651 138.538">
  <g id="catering" transform="translate(-36.398 -35.973)">
    <g id="Group_17869" data-name="Group 17869" transform="translate(36.398 35.973)">
      <path id="Path_9436" data-name="Path 9436" d="M49.155,121.662a1.892,1.892,0,0,0,1.892-1.892,57.319,57.319,0,0,1,114.638,0,1.892,1.892,0,1,0,3.784,0,61.1,61.1,0,0,0-122.206,0A1.892,1.892,0,0,0,49.155,121.662Z" transform="translate(-39.04 -41.492)" fill="#4885ed"/>
      <path id="Path_9437" data-name="Path 9437" d="M118.964,50.921a1.892,1.892,0,0,0,1.892-1.892V44.243a4.486,4.486,0,0,1,8.973,0v4.786a1.892,1.892,0,0,0,3.784,0V44.243a8.271,8.271,0,0,0-16.541,0v4.786A1.892,1.892,0,0,0,118.964,50.921Z" transform="translate(-56.016 -35.973)" fill="#4885ed"/>
      <path id="Path_9438" data-name="Path 9438" d="M167.261,183.1H44.187a7.789,7.789,0,1,0,0,15.578h5.947l5.072,8.983a5.176,5.176,0,0,0,4.5,2.629h92.029a5.175,5.175,0,0,0,4.5-2.628l5.073-8.984h5.947a7.789,7.789,0,0,0,0-15.578Zm-14.316,22.7a1.386,1.386,0,0,1-1.206.7H59.709A1.386,1.386,0,0,1,58.5,205.8l-4.023-7.123H156.967Zm14.316-10.908H44.187a4.005,4.005,0,0,1,0-8.01H167.261a4.005,4.005,0,1,1,0,8.01Z" transform="translate(-36.398 -71.752)" fill="#4885ed"/>
    </g>
    <path id="Path_9439" data-name="Path 9439" d="M119.817,152.4h-7.378a5.145,5.145,0,0,1-4.981-3.857l-1.931-7.493-6.662,3.933a5.148,5.148,0,0,1-6.251-.794L87.4,138.972a5.146,5.146,0,0,1-.8-6.249l3.933-6.665-7.492-1.931a5.147,5.147,0,0,1-3.858-4.982v-7.378a5.147,5.147,0,0,1,3.856-4.982l7.494-1.931L86.6,98.192a5.147,5.147,0,0,1,.8-6.251l5.218-5.218a5.148,5.148,0,0,1,6.249-.8l6.664,3.934,1.931-7.493a5.144,5.144,0,0,1,4.981-3.857h7.378a5.147,5.147,0,0,1,4.982,3.854l1.931,7.495,6.662-3.932a5.147,5.147,0,0,1,6.251.794l5.218,5.218a5.146,5.146,0,0,1,.8,6.249l-3.933,6.665,7.491,1.931h0a5.147,5.147,0,0,1,3.857,4.982v7.378a5.147,5.147,0,0,1-3.857,4.982l-7.493,1.931,3.932,6.662a5.147,5.147,0,0,1-.8,6.251l-5.218,5.218a5.146,5.146,0,0,1-6.25.8l-6.664-3.933-1.93,7.492A5.148,5.148,0,0,1,119.817,152.4Zm-13.086-16.15a1.891,1.891,0,0,1,1.832,1.42l2.559,9.928a1.36,1.36,0,0,0,1.317,1.019h7.378a1.363,1.363,0,0,0,1.319-1.022l2.557-9.925a1.892,1.892,0,0,1,2.794-1.157l8.828,5.211a1.362,1.362,0,0,0,1.653-.212l5.217-5.217a1.362,1.362,0,0,0,.21-1.654l-5.211-8.827a1.893,1.893,0,0,1,1.158-2.794l9.927-2.558a1.362,1.362,0,0,0,1.019-1.318v-7.378a1.363,1.363,0,0,0-1.019-1.318l-9.927-2.558a1.893,1.893,0,0,1-1.158-2.794l5.212-8.829a1.361,1.361,0,0,0-.211-1.652L136.969,89.4a1.363,1.363,0,0,0-1.654-.21l-8.827,5.21a1.892,1.892,0,0,1-2.794-1.157l-2.558-9.928a1.363,1.363,0,0,0-1.318-1.018h-7.378a1.359,1.359,0,0,0-1.317,1.019l-2.559,9.927a1.892,1.892,0,0,1-2.794,1.157l-8.828-5.211a1.363,1.363,0,0,0-1.653.212L90.07,94.615a1.361,1.361,0,0,0-.21,1.654l5.211,8.827a1.893,1.893,0,0,1-1.158,2.794l-9.928,2.558a1.362,1.362,0,0,0-1.019,1.318v7.378a1.364,1.364,0,0,0,1.021,1.319l9.926,2.557a1.893,1.893,0,0,1,1.158,2.794l-5.211,8.829a1.361,1.361,0,0,0,.211,1.652l5.217,5.218a1.364,1.364,0,0,0,1.655.21l8.826-5.21a1.892,1.892,0,0,1,.962-.262Z" transform="translate(-10.404 -10.344)" fill="#4885ed"/>
    <path id="Path_9441" data-name="Path 9441" d="M123.758,136.287a13.2,13.2,0,1,1,13.2-13.2A13.216,13.216,0,0,1,123.758,136.287Zm0-22.619a9.417,9.417,0,1,0,9.417,9.417,9.428,9.428,0,0,0-9.417-9.417Z" transform="translate(-18.034 -17.974)" fill="#4885ed"/>
  </g>
</svg>
