<svg xmlns="http://www.w3.org/2000/svg" width="13.364" height="11.129" viewBox="0 0 13.364 11.129">
  <g id="Page-1" transform="translate(0.002 -0.031)">
    <g id="_038---HDL" data-name="038---HDL" transform="translate(-0.002 0.031)">
      <path id="Shape" d="M19.223,27.273a.223.223,0,0,0,.223-.223v-.8h.891v.891a.223.223,0,0,0,.445,0V24.912a.223.223,0,0,0-.445,0V25.8h-.891v-.98a.223.223,0,1,0-.445,0V27.05A.223.223,0,0,0,19.223,27.273Z" transform="translate(-14.991 -19.128)" fill="#4885ed"/>
      <path id="Shape-2" data-name="Shape" d="M29.891,25h-.668a.223.223,0,0,0-.223.223V27.45a.223.223,0,0,0,.223.223h.668a.891.891,0,0,0,.891-.891v-.891A.891.891,0,0,0,29.891,25Zm.445,1.782a.445.445,0,0,1-.445.445h-.445V25.445h.445a.445.445,0,0,1,.445.445Z" transform="translate(-22.764 -19.439)" fill="#4885ed"/>
      <path id="Shape-3" data-name="Shape" d="M39.223,27.673h1.336a.223.223,0,0,0,0-.445H39.445v-2a.223.223,0,0,0-.445,0V27.45A.223.223,0,0,0,39.223,27.673Z" transform="translate(-30.536 -19.439)" fill="#4885ed"/>
      <path id="Shape-4" data-name="Shape" d="M5.668,37A.668.668,0,0,0,5,37.668a.223.223,0,0,0,.445,0,.223.223,0,0,1,.223-.223.223.223,0,1,0,0-.445Z" transform="translate(-4.109 -28.766)" fill="#4885ed"/>
      <path id="Shape-5" data-name="Shape" d="M13.248,2.92a1.108,1.108,0,0,0-.808.352,6.612,6.612,0,0,0-1.99-.478A24.552,24.552,0,0,0,8.46.177a.457.457,0,0,0-.668,0,23.163,23.163,0,0,0-2.5,3.442C2.9,4.6,1.454,6.219,1.612,7.7A1.557,1.557,0,1,0,3.786,9.89a7.1,7.1,0,0,0,1.8.342,3.947,3.947,0,0,0,2.542.928,4.009,4.009,0,0,0,3.642-2.386c1.77-1.051,2.694-2.46,2.41-3.7a2.03,2.03,0,0,0-.1-.307,1.108,1.108,0,0,0-.829-1.851Zm0,.445a.668.668,0,1,1-.668.668A.668.668,0,0,1,13.248,3.365ZM8.124.47c.6.681,3.565,4.2,3.565,6.61a3.675,3.675,0,0,1-.269,1.383A10.355,10.355,0,0,1,8.6,9.538,10.527,10.527,0,0,1,5.78,9.8H5.771A3.655,3.655,0,0,1,4.562,7.08C4.562,4.67,7.532,1.151,8.124.47ZM2.558,10.047A1.114,1.114,0,1,1,3.671,8.933,1.114,1.114,0,0,1,2.558,10.047Zm0-2.673a1.551,1.551,0,0,0-.512.089c.011-1.109,1.134-2.344,2.9-3.2A6.552,6.552,0,0,0,4.117,7.08a4.1,4.1,0,0,0,.971,2.655A6.37,6.37,0,0,1,4.01,9.5,1.555,1.555,0,0,0,2.558,7.374Zm5.568,3.341a3.486,3.486,0,0,1-1.733-.461A11.339,11.339,0,0,0,8.7,9.972a11.173,11.173,0,0,0,2.34-.808,3.54,3.54,0,0,1-2.915,1.551ZM12,8.1a4.137,4.137,0,0,0,.131-1.016,8.02,8.02,0,0,0-1.379-3.8,5.935,5.935,0,0,1,1.45.377,1.107,1.107,0,0,0,1.5,1.392c.014.043.028.085.039.131C13.958,6.112,13.3,7.2,12,8.1Z" transform="translate(-0.998 -0.031)" fill="#4885ed"/>
      <path id="Shape-6" data-name="Shape" d="M27.451,9.778v.891a.445.445,0,0,0,.445.445h.891a.445.445,0,0,0,.445-.445V9.778a.445.445,0,0,0,.356-.713L28.7,7.88a.457.457,0,0,0-.713,0l-.891,1.188a.445.445,0,0,0,.356.711Zm.891-1.633.891,1.187H29.01a.223.223,0,0,0-.223.223v1.114H27.9V9.556a.223.223,0,0,0-.223-.223h-.223Z" transform="translate(-21.214 -5.999)" fill="#4885ed"/>
    </g>
  </g>
</svg>
