<svg xmlns="http://www.w3.org/2000/svg" width="9.945" height="12.21" viewBox="0 0 9.945 12.21">
  <g id="trans-fat_1_" data-name="trans-fat (1)" transform="translate(-47.5)">
    <path id="Path_9413" data-name="Path 9413" d="M189.237,251.145a.239.239,0,0,0,.222-.152l.125-.319h.843l.125.319a.238.238,0,0,0,.444-.174l-.183-.468,0-.01-.581-1.482a.239.239,0,0,0-.444,0l-.768,1.961a.239.239,0,0,0,.222.326Zm.768-1.545.234.6h-.469Z" transform="translate(-138.124 -242.777)" fill="#4885ed"/>
    <path id="Path_9414" data-name="Path 9414" d="M116.367,249.178a.238.238,0,1,0,0-.477h-.883a.238.238,0,0,0-.238.238V250.9a.238.238,0,1,0,.477,0v-.8h.645a.238.238,0,1,0,0-.477h-.645v-.442h.645Z" transform="translate(-66.129 -242.77)" fill="#4885ed"/>
    <path id="Path_9415" data-name="Path 9415" d="M281.011,251.138a.238.238,0,0,0,.238-.238v-1.722h.452a.238.238,0,1,0,0-.477h-1.377a.238.238,0,0,0,0,.477h.448V250.9A.238.238,0,0,0,281.011,251.138Z" transform="translate(-227.039 -242.77)" fill="#4885ed"/>
    <path id="Path_9416" data-name="Path 9416" d="M105.445,135.567a.238.238,0,0,0,.238-.238h0a.238.238,0,1,0-.238.239Z" transform="translate(-56.331 -131.868)" fill="#4885ed"/>
    <path id="Path_9417" data-name="Path 9417" d="M55.811.419a.75.75,0,0,0-1.345,0,10.913,10.913,0,0,0-.808,1.132c-.225-.3-.437-.573-.622-.8a1.273,1.273,0,0,0-2.319,0c-.487.608-.879,1.138-1.233,1.669a.238.238,0,1,0,.4.265c.346-.519.73-1.039,1.208-1.635.307-.383.564-.569.787-.569s.48.186.787.569C54,2.713,55.775,5.238,55.775,7.915a3.9,3.9,0,0,1-7.8,0,8.04,8.04,0,0,1,.857-3.409.238.238,0,0,0-.431-.2,8.508,8.508,0,0,0-.9,3.613,4.128,4.128,0,0,0,1.375,3.222,4.734,4.734,0,0,0,6,0,4.128,4.128,0,0,0,1.375-3.222,7.22,7.22,0,0,0-.221-1.732,2.178,2.178,0,0,0,.928-.655,2.257,2.257,0,0,0,.486-1.452A6.265,6.265,0,0,0,55.811.419Zm.093,5.3a10.993,10.993,0,0,0-.786-1.883,16.648,16.648,0,0,0-1.155-1.867A9.987,9.987,0,0,1,54.837.717c.167-.209.26-.24.3-.24s.133.031.3.24a5.842,5.842,0,0,1,1.529,3.359A1.68,1.68,0,0,1,55.9,5.722Z" fill="#4885ed"/>
  </g>
</svg>
