<svg xmlns="http://www.w3.org/2000/svg" width="10.499" height="11.597" viewBox="0 0 10.499 11.597">
  <g id="wheat" transform="translate(-24.235)">
    <g id="Group_17867" data-name="Group 17867" transform="translate(24.235)">
      <path id="Path_9425" data-name="Path 9425" d="M159.022,3.347a.227.227,0,0,0-.187-.073l-.516.045a1.367,1.367,0,0,0,.692-1.156V1.753s0-.007,0-.01v-.9a.226.226,0,0,0-.453,0v.732l-.719.193a1.2,1.2,0,0,0-.491.274V.226a.226.226,0,0,0-.453,0V2.04a1.2,1.2,0,0,0-.491-.274l-.719-.193V.842a.226.226,0,1,0-.453,0v.9s0,.007,0,.01v.41a1.294,1.294,0,0,0,.167.622.226.226,0,0,0-.043.1l-.072.409a1.3,1.3,0,0,0,.056.642.226.226,0,0,0-.059.088l-.142.391a1.294,1.294,0,0,0-.056.642.227.227,0,0,0-.073.077l-.208.36a1.3,1.3,0,0,0-.167.622.226.226,0,0,0-.086.063l-.267.318a1.294,1.294,0,0,0-.272.584.226.226,0,0,0-.1.047l-.318.267a1.294,1.294,0,0,0-.369.528.226.226,0,0,0-.1.03l-.36.208a1.345,1.345,0,0,0-.618,1.446l.187.7q-.352.171-.725.309a.226.226,0,1,0,.157.425q.4-.149.786-.336l.54.54a1.347,1.347,0,0,0,1.561.188l.36-.208a.226.226,0,0,0,.047-.356L154.7,10.5a1.32,1.32,0,0,0,.474.086,1.341,1.341,0,0,0,.856-.3l.318-.267a.226.226,0,0,0-.016-.359l-.424-.3a1.263,1.263,0,0,0,.243.024,1.364,1.364,0,0,0,1.03-.464l.267-.318a.226.226,0,0,0-.078-.351l-.47-.219h.024a1.367,1.367,0,0,0,1.154-.655l.208-.36a.226.226,0,0,0-.137-.332l-.5-.134A1.367,1.367,0,0,0,158.69,5.7l.142-.391a.226.226,0,0,0-.193-.3l-.516-.045a1.367,1.367,0,0,0,.882-1.018l.072-.409a.227.227,0,0,0-.056-.192Zm-3.291.024.021-.119.565.263a.9.9,0,0,1,.462.872q-.014.08-.029.16l-.562-.262A.9.9,0,0,1,155.731,3.371Zm.386,1.441a.9.9,0,0,1,.313.906c-.022.061-.044.123-.067.183l-.506-.355a.9.9,0,0,1-.291-.979l.041-.113ZM155.7,6.054a.9.9,0,0,1,.158.929q-.052.093-.107.185l-.435-.435a.9.9,0,0,1-.116-1.014l.06-.1Zm2.26-3.849.6-.161v.121a.9.9,0,0,1-.608.82l-.6.162c0-.04,0-.081,0-.121A.9.9,0,0,1,157.956,2.2Zm-2.27-.161.6.161a.9.9,0,0,1,.608.82c0,.04,0,.08,0,.12l-.6-.161a.9.9,0,0,1-.608-.82ZM154.63,6.786l.077-.092.357.51a.9.9,0,0,1-.007.944q-.067.082-.136.162l-.354-.5A.9.9,0,0,1,154.63,6.786Zm-.742.954.092-.077.263.565a.9.9,0,0,1-.187.946l-.144.121-.262-.562a.9.9,0,0,1,.238-.993Zm-1.3,1.747a.9.9,0,0,1,.407-.937l.1-.06.161.6a.9.9,0,0,1-.407.937l0,0-.1.057Zm1.843,1.551a.9.9,0,0,1-1.014-.116l-.44-.44.148-.084a.9.9,0,0,1,.97.139l.441.441Zm1.306-1.1a.9.9,0,0,1-1.019.062l-.51-.357.125-.1a.9.9,0,0,1,.985-.035l.51.357Zm1.1-1.308a.9.9,0,0,1-.993.238l-.565-.264.083-.1a.9.9,0,0,1,.988-.232l.565.263Zm.852-1.478a.9.9,0,0,1-.937.407l-.6-.161q.042-.07.083-.141a.9.9,0,0,1,.914-.37l.6.161Zm.582-1.6a.9.9,0,0,1-.852.563l-.619-.054q.032-.084.062-.169a.9.9,0,0,1,.829-.508l.621.054Zm.295-1.68a.9.9,0,0,1-.741.7l-.62.054q.015-.079.029-.159a.9.9,0,0,1,.732-.662l.621-.054Z" transform="translate(-148.582)" fill="#4885ed"/>
      <path id="Path_9426" data-name="Path 9426" d="M25.338,488.494a8.2,8.2,0,0,1-.876.047.226.226,0,1,0,0,.453,8.66,8.66,0,0,0,.925-.05.226.226,0,0,0-.049-.45Z" transform="translate(-24.235 -477.43)" fill="#4885ed"/>
      <path id="Path_9427" data-name="Path 9427" d="M108.6,480.958h0a.226.226,0,1,0,.227.226A.226.226,0,0,0,108.6,480.958Z" transform="translate(-106.464 -470.066)" fill="#4885ed"/>
    </g>
  </g>
</svg>
