<svg id="fruit" xmlns="http://www.w3.org/2000/svg" width="20.991" height="20.854" viewBox="0 0 20.991 20.854">
  <path id="Path_9398" data-name="Path 9398" d="M20.991,11.538a10.093,10.093,0,0,0-2.976-7.184.307.307,0,0,0-.434,0L6.865,15.071a3.388,3.388,0,0,0-2.36-.152,3.172,3.172,0,0,0-1.38-1.925.307.307,0,0,0-.291.541,2.509,2.509,0,0,1,1,1.3,2.915,2.915,0,0,0-2.758.819C.1,12.109,1.271,6.79,5.8,6.8A4.773,4.773,0,0,1,10.254,10a.307.307,0,1,0,.579-.2A5.405,5.405,0,0,0,8.761,7.086a3.212,3.212,0,0,1,.545-1.267l.4-.563A.682.682,0,0,0,8.88,4.245l-.964.44A3.111,3.111,0,0,1,8.6,2.572a.566.566,0,0,0-.695-.845A3.907,3.907,0,0,0,5.762,3.36,3.932,3.932,0,0,0,3.615,1.726a.566.566,0,0,0-.695.845,3.112,3.112,0,0,1,.688,2.113l-.964-.44a.682.682,0,0,0-.83,1.011l.4.563A3.211,3.211,0,0,1,2.766,7.1C-.049,9.019-.353,13.28.612,16.254A5.021,5.021,0,0,0,.475,20.79a.307.307,0,1,0,.548-.278C.281,19.05.5,16.567,2.035,15.675A2.534,2.534,0,0,1,4,15.516a4.072,4.072,0,0,1,.043.593.307.307,0,1,0,.614,0,4.8,4.8,0,0,0-.035-.588,2.692,2.692,0,0,1,2.024.13c1.943,1.11,1.947,4.886-.007,5.976a2.218,2.218,0,0,1-1.807.165,1.649,1.649,0,0,0-1.014,0,2.192,2.192,0,0,1-1.911-.273.307.307,0,1,0-.338.512,2.832,2.832,0,0,0,2.438.345,1.037,1.037,0,0,1,.639,0,2.844,2.844,0,0,0,2.294-.213,3.059,3.059,0,0,0,.657-.495,4.068,4.068,0,0,0,5.2-.161,10.16,10.16,0,0,0,8.2-9.969ZM2.717,5.461l-.4-.563q-.034-.106.077-.094c.459.21.936.4,1.381.638a.307.307,0,0,0,.452-.27,4.187,4.187,0,0,0-.7-2.811c1,.455,1.931,1,1.931,2.264a.307.307,0,0,0,.614,0C6.069,3.369,7,2.815,8,2.36a4.187,4.187,0,0,0-.7,2.811.307.307,0,0,0,.452.27C8.2,5.2,8.675,5.013,9.135,4.8q.11-.012.077.094l-.4.563a3.828,3.828,0,0,0-.6,1.3,5.391,5.391,0,0,0-4.883.015A3.827,3.827,0,0,0,2.717,5.461ZM7.99,21.2a4.839,4.839,0,0,0-.174-5.343,3.427,3.427,0,0,1,2.283-.861A3.46,3.46,0,1,1,7.99,21.2Zm5.5-.489a4.056,4.056,0,0,0,.553-1.236,8.569,8.569,0,0,0,5.179-6.247.307.307,0,0,0-.6-.12,7.958,7.958,0,0,1-4.459,5.648A4.117,4.117,0,0,0,10.1,14.379a4.036,4.036,0,0,0-2.671,1l9.235-9.235a7.879,7.879,0,0,1,2.113,5.484.307.307,0,0,0,.614.007A8.488,8.488,0,0,0,17.1,5.708l.7-.7a9.549,9.549,0,0,1-4.3,15.7Z" transform="translate(0 -1.674)" fill="#4885ed"/>
  <path id="Path_9399" data-name="Path 9399" d="M346.738,324.348a.307.307,0,1,0-.434.434l.464.464a.307.307,0,0,0,.434-.434Z" transform="translate(-332.041 -311.052)" fill="#4885ed"/>
  <path id="Path_9400" data-name="Path 9400" d="M375.419,283.043l-.6-.266a.307.307,0,0,0-.25.561l.6.266a.307.307,0,1,0,.25-.561Z" transform="translate(-359.062 -271.243)" fill="#4885ed"/>
  <path id="Path_9401" data-name="Path 9401" d="M386.359,233.624l-.65-.033h-.016a.307.307,0,0,0-.015.614l.65.033h.016a.307.307,0,0,0,.015-.614Z" transform="translate(-369.609 -224.097)" fill="#4885ed"/>
  <path id="Path_9402" data-name="Path 9402" d="M378,179.29a.306.306,0,0,0,.1-.016l.613-.206a.307.307,0,0,0-.2-.582l-.613.206a.307.307,0,0,0,.1.6Z" transform="translate(-362.234 -171.232)" fill="#4885ed"/>
  <path id="Path_9403" data-name="Path 9403" d="M117.7,188.178a.306.306,0,0,0,.217-.09l.677-.676a.307.307,0,0,0-.434-.434l-.459.459-.459-.459a.307.307,0,0,0-.434.434l.677.676A.306.306,0,0,0,117.7,188.178Z" transform="translate(-111.935 -179.305)" fill="#4885ed"/>
  <path id="Path_9404" data-name="Path 9404" d="M185.34,188.178a.306.306,0,0,0,.217-.09l.677-.676a.307.307,0,0,0-.434-.434l-.459.459-.459-.459a.307.307,0,1,0-.434.434l.676.676A.306.306,0,0,0,185.34,188.178Z" transform="translate(-176.809 -179.305)" fill="#4885ed"/>
  <path id="Path_9405" data-name="Path 9405" d="M84.007,234.34l-.459.459-.459-.459a.307.307,0,0,0-.434.434l.676.677a.307.307,0,0,0,.434,0l.677-.677a.307.307,0,0,0-.434-.434Z" transform="translate(-79.184 -224.729)" fill="#4885ed"/>
  <path id="Path_9406" data-name="Path 9406" d="M150.975,235.451a.307.307,0,0,0,.434,0l.676-.676a.307.307,0,0,0-.434-.434l-.459.459-.459-.459a.307.307,0,0,0-.434.434Z" transform="translate(-144.059 -224.729)" fill="#4885ed"/>
  <circle id="Ellipse_405" data-name="Ellipse 405" cx="0.307" cy="0.307" r="0.307" transform="translate(10.478 14.313)" fill="#4885ed"/>
</svg>
