<svg xmlns="http://www.w3.org/2000/svg" width="12.142" height="9.715" viewBox="0 0 12.142 9.715">
  <g id="meat_1_" data-name="meat (1)" transform="translate(-16.047 -112)">
    <path id="Path_9429" data-name="Path 9429" d="M25.214,112h-.077a3.24,3.24,0,0,0-2.21.82s-1.295,1.617-1.235,1.631a1.86,1.86,0,0,1-.365.422,2.687,2.687,0,0,1-1.619.363h-.041a1.205,1.205,0,0,0-1.193,1.214v.81a1.074,1.074,0,0,0,.379.831,1.217,1.217,0,0,0-.823.585H17.6l-.556-.623,0,0a.566.566,0,0,0-.832,0,.63.63,0,0,0-.008.84l.3.394-.3.394a.63.63,0,0,0,.008.84.566.566,0,0,0,.832,0l0,0,.555-.623h.428a1.215,1.215,0,0,0,1.051.607,3.628,3.628,0,0,1,1.427.509,5.029,5.029,0,0,0,2.216.705,2.429,2.429,0,0,0,2.394-2.84c1.93-.083,3.071-.975,3.071-2.422v-1.417A3.01,3.01,0,0,0,25.214,112Zm-7.7,7.489a.2.2,0,0,0-.151.068l-.614.689a.161.161,0,0,1-.241,0,.222.222,0,0,1,0-.3l.014-.017.393-.523a.2.2,0,0,0,0-.243l-.393-.523-.014-.017a.222.222,0,0,1,0-.3.161.161,0,0,1,.241,0l.614.689a.2.2,0,0,0,.151.068h.372a1.2,1.2,0,0,0,0,.4Zm2.155-3.845h.038a3.057,3.057,0,0,0,1.868-.447,3.374,3.374,0,0,0,.686-.873,3.266,3.266,0,0,1,2.886-1.918h.068a2.6,2.6,0,0,1,2.571,2.631,2.515,2.515,0,0,1-.778,1.856,3.118,3.118,0,0,1-2.189.775h-.284a2.423,2.423,0,0,0-1.809-.81,4.643,4.643,0,0,0-2.04.617c-.317-.053-.634-.12-.968-.205-.729-.186-.838-.591-.838-.816A.8.8,0,0,1,19.667,115.643Zm-.175,2.363a.84.84,0,0,1-.612-.7,1.85,1.85,0,0,0,.737.355c.159.041.315.077.468.11A4.064,4.064,0,0,1,19.493,118.006Zm3.232,3.3a4.654,4.654,0,0,1-2.034-.662,3.867,3.867,0,0,0-1.609-.553.81.81,0,1,1,0-1.619,3.867,3.867,0,0,0,1.609-.553,4.654,4.654,0,0,1,2.034-.662,2.024,2.024,0,1,1,0,4.048Zm2.289-2.836a2.419,2.419,0,0,0-.186-.4,3.51,3.51,0,0,0,2.457-.885,2.833,2.833,0,0,0,.5-.622C27.722,117.737,26.724,118.425,25.013,118.474Z" transform="translate(0 0)" fill="#4885ed"/>
    <path id="Path_9430" data-name="Path 9430" d="M337.417,178.834A1.417,1.417,0,1,0,336,177.417,1.417,1.417,0,0,0,337.417,178.834Zm0-2.429a1.012,1.012,0,1,1-1.012,1.012A1.012,1.012,0,0,1,337.417,176.4Z" transform="translate(-311.859 -62.381)" fill="#4885ed"/>
  </g>
</svg>
