<svg id="recent" xmlns="http://www.w3.org/2000/svg" width="129.14" height="129.14" viewBox="0 0 129.14 129.14">
  <g id="Group_17871" data-name="Group 17871">
    <path id="Path_9448" data-name="Path 9448" d="M64.57,129.14a64.57,64.57,0,1,1,64.57-64.57A64.644,64.644,0,0,1,64.57,129.14Zm0-122.683A58.113,58.113,0,1,0,122.683,64.57,58.181,58.181,0,0,0,64.57,6.457Z" fill="#4885ed"/>
  </g>
  <g id="Group_17872" data-name="Group 17872" transform="translate(61.342 32.285)">
    <path id="Path_9449" data-name="Path 9449" d="M90.024,78.328V50.609a3.228,3.228,0,1,1,6.457,0V75.654a6.458,6.458,0,0,0,1.892,4.566l14.251,14.251a3.229,3.229,0,0,1-4.566,4.566L91.915,82.894A6.46,6.46,0,0,1,90.024,78.328Z" transform="translate(-90.024 -47.381)" fill="#4885ed" fill-rule="evenodd"/>
  </g>
</svg>
