<svg xmlns="http://www.w3.org/2000/svg" width="26.687" height="27.275" viewBox="0 0 26.687 27.275"><g transform="translate(0 0)"><ellipse cx="2.698" cy="2.698" rx="2.698" ry="2.698" transform="translate(15.314)" fill="#fff"/><path d="M3.385,21.752c2.829,1.655,4.526-.773,5.8-3.11a3.148,3.148,0,0,1,.256-.684q1.484-2.887,3.1-5.706C10.438,11.58,8.508,12.2,6.99,14.32c-1.234,1.729-4.121.071-2.873-1.678,2.937-4.114,7.317-5.135,11.7-2.531a1.753,1.753,0,0,1,.446.372c.066.026.132.055.2.085a1.746,1.746,0,0,1,.548.215c2.726,1.618,5.259,1.312,7.151-1.338,1.235-1.729,4.121-.071,2.872,1.678-2.414,3.381-5.8,4.668-9.368,3.575q-1.678,2.882-3.2,5.853a20.856,20.856,0,0,1,4.2,2.86,2.029,2.029,0,0,1,.153.15,1.6,1.6,0,0,1,.707.753l2.618,5.409c.937,1.937-2.078,3.341-3.011,1.413q-1.244-2.57-2.489-5.14a1.944,1.944,0,0,1-.331-.233A15.728,15.728,0,0,0,11.2,22.732a1.753,1.753,0,0,1-.258-.114c-2.312,2.934-5.538,4.55-9.4,2.293A1.831,1.831,0,0,1,3.385,21.752Z" transform="translate(-0.654 -4.783)" fill="#fff"/></g></svg>