<svg xmlns="http://www.w3.org/2000/svg" width="8.998" height="8.998" viewBox="0 0 8.998 8.998">
  <g id="sodium" transform="translate(-15.181 -15.182)">
    <path id="Path_9418" data-name="Path 9418" d="M50.655,59h7.688A.656.656,0,0,0,59,58.344V50.656A.656.656,0,0,0,58.343,50H50.655a.656.656,0,0,0-.655.655v7.688A.656.656,0,0,0,50.655,59Zm-.218-8.343a.219.219,0,0,1,.218-.218h7.688a.219.219,0,0,1,.218.218v7.688a.219.219,0,0,1-.218.218H50.655a.219.219,0,0,1-.218-.218Z" transform="translate(-34.819 -34.819)" fill="#4885ed"/>
    <path id="Path_9419" data-name="Path 9419" d="M198.781,103.748a.218.218,0,0,0,0,.437h.655a.218.218,0,0,0,0-.437h-.109v-1.529a.218.218,0,0,0-.218-.218h-.328a.218.218,0,0,0,0,.437h.109v1.31Z" transform="translate(-180.139 -85.683)" fill="#4885ed"/>
    <path id="Path_9420" data-name="Path 9420" d="M263.781,103.748a.218.218,0,0,0,0,.437h.655a.218.218,0,0,0,0-.437h-.109v-1.529a.218.218,0,0,0-.218-.218h-.328a.218.218,0,0,0,0,.437h.109v1.31Z" transform="translate(-243.719 -85.683)" fill="#4885ed"/>
    <path id="Path_9422" data-name="Path 9422" d="M153.72,245.763a.218.218,0,0,0,.218-.218v-2.351l1.224,2.449a.218.218,0,0,0,.414-.1v-3.276a.218.218,0,0,0-.437,0v2.351l-1.224-2.448a.219.219,0,0,0-.414.1v3.276A.218.218,0,0,0,153.72,245.763Z" transform="translate(-136.061 -222.675)" fill="#4885ed"/>
    <path id="Path_9423" data-name="Path 9423" d="M268.854,292.657a.218.218,0,0,0,.437,0,.219.219,0,0,1,.218-.218h.546a.219.219,0,0,1,.218.218v.4a.828.828,0,0,0-.4-.1h-.3a.833.833,0,0,0,0,1.665h.3a.828.828,0,0,0,.422-.115.219.219,0,0,0,.411-.1v-1.747a.656.656,0,0,0-.655-.655h-.546A.656.656,0,0,0,268.854,292.657Zm1.024,1.529h-.3a.4.4,0,0,1,0-.792h.3A.4.4,0,0,1,269.878,294.186Z" transform="translate(-248.792 -271.535)" fill="#4885ed"/>
  </g>
</svg>
