<svg xmlns="http://www.w3.org/2000/svg" width="12.341" height="11.676" viewBox="0 0 12.341 11.676">
  <g id="sugar-cube" transform="translate(0 -13.801)">
    <g id="Group_17868" data-name="Group 17868" transform="translate(0 13.801)">
      <path id="Path_9428" data-name="Path 9428" d="M12.3,21.561l-2.014-2.542a.178.178,0,0,0-.146-.068l-1.089.029a.18.18,0,0,0,.013-.065V15.433h0a.181.181,0,0,0-.1-.162l-1.448-.724a.181.181,0,0,0-.162.323l1.125.562-2.5,1.248-2.5-1.248,2.5-1.248.616.308a.181.181,0,1,0,.162-.323l-.7-.348a.181.181,0,0,0-.162,0L3,15.271a.181.181,0,0,0-.1.162h0V18.8L.1,20.2a.181.181,0,0,0-.1.162H0v1.007a.181.181,0,0,0,.362,0v-.715L2.9,21.927V25L.362,23.734V22.217a.181.181,0,1,0-.362,0v1.629a.181.181,0,0,0,.1.162L3,25.458a.181.181,0,0,0,.162,0l2.9-1.451a.181.181,0,0,0,.1-.162v-.258L7.3,25.025a.181.181,0,0,0,.142.069h0l3.242-.086a.181.181,0,0,0,.159-.1l.436-.932a.181.181,0,0,0-.328-.153l-.388.831-2.838.075,1.3-2.788,2.838-.075-.556,1.191a.181.181,0,1,0,.328.153l.68-1.456a.181.181,0,0,0-.022-.189ZM8.7,15.725V18.8L8.31,19,6.9,19.036h0a.181.181,0,0,0-.158.1l-.392.84-.184.092V16.995Zm-2.9,1.27v3.077L3.263,18.8V15.725Zm-2.72,2.121,2.5,1.248-2.5,1.248-2.5-1.248ZM5.8,23.734,3.263,25V21.927L5.8,20.657v.491l-.536,1.146a.181.181,0,0,0,.022.189l.514.648Zm1.6.837L5.641,22.346l1.3-2.788,1.763,2.225Zm1.6-3L7.27,19.388l2.791-.074L11.794,21.5Z" transform="translate(0 -13.801)" fill="#4885ed"/>
      <circle id="Ellipse_406" data-name="Ellipse 406" cx="0.195" cy="0.195" r="0.195" transform="translate(7.875 4.109)" fill="#4885ed"/>
      <circle id="Ellipse_407" data-name="Ellipse 407" cx="0.195" cy="0.195" r="0.195" transform="translate(7.875 3.354)" fill="#4885ed"/>
      <circle id="Ellipse_408" data-name="Ellipse 408" cx="0.195" cy="0.195" r="0.195" transform="translate(7.12 4.377)" fill="#4885ed"/>
    </g>
  </g>
</svg>
